<mxfile host="app.diagrams.net" modified="2023-12-04T07:16:41.058Z" agent="Mozilla/5.0 (Macintosh; Intel Mac OS X 10_15_7) AppleWebKit/605.1.15 (KHTML, like Gecko) Version/17.1 Safari/605.1.15" version="22.1.5" etag="jxtkfVjOCj8CaIkPMcGL" type="github">
  <diagram name="Page-1" id="6TpXa9Per6nVqg6lQ0BT">
    <mxGraphModel>
      <root>
        <mxCell id="0" />
        <mxCell id="1" parent="0" />
      </root>
    </mxGraphModel>
  </diagram>
</mxfile>
